<?xml version="1.0"?>
<svg xmlns="http://www.w3.org/2000/svg" xmlns:xlink="http://www.w3.org/1999/xlink" version="1.1" viewBox="0 0 210 210" width="64px" height="64px"><g fill="none" fill-rule="nonzero" stroke="none" stroke-width="1" stroke-linecap="butt" stroke-linejoin="miter" stroke-miterlimit="10" stroke-dasharray="" stroke-dashoffset="0" font-family="none" font-weight="none" font-size="none" text-anchor="none" style="mix-blend-mode: normal"><path d="M0,210v-210h210v210z" fill="none"/><g id="Layer_1"><g><g fill="#000000"><g><g><g><g><g><g><path d="M3.24023,105c0,-56.19141 45.56836,-101.75977 101.75977,-101.75977c56.19141,0 101.75977,45.56836 101.75977,101.75977c0,56.19141 -45.56836,101.75977 -101.75977,101.75977c-56.19141,0 -101.75977,-45.56836 -101.75977,-101.75977z"/></g></g></g></g></g></g></g><g fill="#ecf0f1"><g><circle cx="154.4" cy="256.9" transform="scale(0.41016,0.41016)" r="53.8"/><circle cx="318.7" cy="161.2" transform="scale(0.41016,0.41016)" r="53.8"/><circle cx="318.7" cy="350.8" transform="scale(0.41016,0.41016)" r="53.8"/></g><g><rect x="283.70331" y="-195.18319" transform="rotate(59.78605) scale(0.41013,0.41013)" width="28.9" height="190.1"/></g><g><rect x="261.82273" y="128.29088" transform="rotate(30.21395) scale(0.41013,0.41013)" width="190.1" height="28.9"/></g></g></g></g></g></svg>
